# xmcd
# 
# Track frame offsets:
#     150
#     27196
#     54877
#     80169
# 
# Disc length: 1427
# 
# Revision: 0
# Processed by: cddbd v1.5.2PL0 Copyright (c) Steve Scherf et al.
# Submitted via: fre:ac v1.0.17
# 
DISCID=27059104
DTITLE=Dawn - Veil Of Sorrow (Demo 2003)
DYEAR=2003
DGENRE=Melodic Metal
TTITLE0=Veil Of Sorrow
TTITLE1=No Forgiveness
TTITLE2=Lifetime Addiction
TTITLE3=Priceless Gift
EXTD=
EXTT0=
EXTT1=
EXTT2=
EXTT3=
PLAYORDER=
